<?xml version="1.0" encoding="iso-8859-1"?>
<!-- Generator: Adobe Illustrator 19.0.0, SVG Export Plug-In . SVG Version: 6.00 Build 0)  -->
<svg version="1.1" id="Layer_1" xmlns="http://www.w3.org/2000/svg" xmlns:xlink="http://www.w3.org/1999/xlink" x="0px" y="0px"
	 viewBox="0 0 501.089 501.089" style="enable-background:new 0 0 501.089 501.089;" xml:space="preserve">
<g transform="translate(1 1)">
	<g>
		<g>
			<path d="M484.561,248.285h-8.393c-18.408,0-36.337,2.152-53.555,6.204c1.115-19.414-0.054-38.829-3.52-58.244l-1.679-8.393
				c-0.839-4.197-5.036-7.554-10.072-6.715l-8.393,1.679c-28.945,5.566-56.244,16.391-80.675,31.66
				c-11.596-34.386-31.205-66.32-56.977-92.093l-5.875-5.875c-3.357-3.357-8.393-3.357-11.751,0l-5.875,5.875
				c-25.746,25.746-45.341,57.643-56.941,91.988c-24.205-15.061-51.434-25.905-80.711-31.555l-8.393-1.679
				c-5.036-0.839-9.233,2.518-10.072,6.715l-1.679,8.393c-3.467,19.414-4.636,38.829-3.52,58.244
				c-17.217-4.052-35.147-6.204-53.555-6.204h-8.393c-5.036,0-8.393,3.357-8.393,8.393v8.393
				c0,129.259,105.757,235.016,235.016,235.016h8.393h8.393c129.259,0,235.016-105.757,235.016-235.016v-8.393
				C492.954,251.643,489.597,248.285,484.561,248.285z M402.305,199.603c4.194,19.294,5.035,39.427,3.36,59.56
				c-17.283,5.476-33.713,12.912-49.038,22.034c-0.121,0.072-0.242,0.143-0.363,0.215c-1.143,0.683-2.28,1.376-3.41,2.078
				c-0.495,0.306-0.987,0.616-1.479,0.926c-0.846,0.534-1.69,1.069-2.529,1.613c-0.982,0.636-1.957,1.283-2.93,1.933
				c-0.384,0.257-0.771,0.51-1.154,0.77c-24.367,16.489-45.551,37.404-62.193,61.54c-5.358-19.292-13.054-37.527-22.79-54.394
				c11.606-18.268,25.872-34.533,42.14-48.371c0.897-0.756,1.789-1.516,2.699-2.259c0.025-0.021,0.05-0.041,0.075-0.061
				c4.409-3.594,8.969-7.036,13.676-10.332c0.106-0.08,0.203-0.163,0.304-0.244C343.547,217.326,372.029,205.226,402.305,199.603z
				 M249.544,134.134c25.032,25.867,44.249,56.713,54.37,90.06c-20.894,15.314-39.25,34.111-54.195,55.79
				c-14.894-21.57-33.317-40.46-54.494-55.916C206.165,189.942,224.539,159.139,249.544,134.134z M96.784,199.603
				c30.545,5.818,58.566,17.69,82.881,34.349c0.33,0.347,0.681,0.656,1.053,0.904c24.341,17.626,45.325,39.449,61.272,65.469
				c8.383,13.622,15.13,27.898,20.242,42.828c0.215,0.633,0.421,1.271,0.63,1.907c0.204,0.614,0.409,1.227,0.608,1.843
				c2.49,7.783,4.571,15.767,6.219,23.927c-3.326,6.32-6.378,12.778-9.177,19.362c-4.316,9.919-7.965,20.186-10.892,30.747
				c-0.024,0.085-0.051,0.168-0.076,0.252c-0.033-0.119-0.07-0.235-0.103-0.354c-0.557-2.005-1.137-4.001-1.745-5.984
				c-0.101-0.332-0.196-0.667-0.299-0.999c-0.608-1.951-1.239-3.891-1.896-5.82c-0.589-1.74-1.209-3.466-1.837-5.188
				c-0.022-0.059-0.042-0.118-0.064-0.176c-22.5-61.589-69.737-111.377-131.464-136.675c-1.365-0.565-2.733-1.124-4.111-1.663
				c-0.308-0.12-0.618-0.236-0.926-0.354c-4.496-1.739-9.054-3.349-13.676-4.813C91.749,239.03,92.589,218.897,96.784,199.603z
				 M22.921,265.072c120.026,0,218.229,98.203,218.229,218.229C121.125,483.302,22.921,385.098,22.921,265.072z M257.938,483.302
				c0-6.953,0.344-13.83,0.988-20.622c0.422-0.892,0.691-1.884,0.691-2.88c3.357-29.377,12.59-57.075,26.859-83.095
				c0.202-0.404,0.353-0.857,0.469-1.335c10.015-17.637,22.436-33.716,36.743-47.799c0.097-0.095,0.194-0.19,0.292-0.285
				c0.967-0.948,1.947-1.881,2.93-2.811c0.664-0.625,1.33-1.247,2.001-1.864c0.405-0.374,0.813-0.745,1.221-1.116
				c38.747-35.023,90.012-56.423,146.035-56.423C476.167,385.098,377.964,483.302,257.938,483.302z"/>
			<path d="M440.075,61.111l25.18-25.18V24.18L440.075-1h-11.751l-25.18,25.18v11.751l25.18,25.18H440.075z M434.2,16.626
				l13.43,13.43l-13.43,13.43l-13.429-13.43L434.2,16.626z"/>
			<path d="M140.43,55.236c14.269,0,25.18,10.911,25.18,25.18c0,5.036,3.357,8.393,8.393,8.393s8.393-3.357,8.393-8.393
				c0-14.269,10.911-25.18,25.18-25.18c5.036,0,8.393-3.357,8.393-8.393s-3.357-8.393-8.393-8.393
				c-14.269,0-25.18-10.911-25.18-25.18c0-5.036-3.357-8.393-8.393-8.393s-8.393,3.357-8.393,8.393
				c0,14.269-10.911,25.18-25.18,25.18c-5.036,0-8.393,3.357-8.393,8.393S135.393,55.236,140.43,55.236z M174.003,38.449
				c2.518,3.357,5.036,5.875,8.393,8.393c-3.357,2.518-5.875,5.036-8.393,8.393c-2.518-3.357-5.036-5.875-8.393-8.393
				C168.967,44.325,171.485,41.807,174.003,38.449z"/>
			<path d="M308.298,97.203h8.393v8.393c0,5.036,3.357,8.393,8.393,8.393c5.036,0,8.393-3.357,8.393-8.393v-8.393h8.393
				c5.036,0,8.393-3.357,8.393-8.393s-3.357-8.393-8.393-8.393h-8.393v-8.393c0-5.036-3.357-8.393-8.393-8.393
				c-5.036,0-8.393,3.357-8.393,8.393v8.393h-8.393c-5.036,0-8.393,3.357-8.393,8.393S303.262,97.203,308.298,97.203z"/>
			<path d="M98.462,130.777c5.036,0,8.393-3.357,8.393-8.393c0-4.197-3.357-8.393-8.393-8.393s-8.393,3.357-8.393,8.393
				S93.426,130.777,98.462,130.777z"/>
			<path d="M48.102,55.236c5.036,0,8.393-3.357,8.393-8.393c0-4.197-3.357-8.393-8.393-8.393s-8.393,3.357-8.393,8.393
				S43.066,55.236,48.102,55.236z"/>
		</g>
	</g>
</g>
<g>
</g>
<g>
</g>
<g>
</g>
<g>
</g>
<g>
</g>
<g>
</g>
<g>
</g>
<g>
</g>
<g>
</g>
<g>
</g>
<g>
</g>
<g>
</g>
<g>
</g>
<g>
</g>
<g>
</g>
</svg>
